ffmpeg version 6.1.1-3ubuntu5 Copyright (c) 2000-2023 the FFmpeg developers
  built with gcc 13 (Ubuntu 13.2.0-23ubuntu3)
  configuration: --prefix=/usr --extra-version=3ubuntu5 --toolchain=hardened --libdir=/usr/lib/x86_64-linux-gnu --incdir=/usr/include/x86_64-linux-gnu --arch=amd64 --enable-gpl --disable-stripping --disable-omx --enable-gnutls --enable-libaom --enable-libass --enable-libbs2b --enable-libcaca --enable-libcdio --enable-libcodec2 --enable-libdav1d --enable-libflite --enable-libfontconfig --enable-libfreetype --enable-libfribidi --enable-libglslang --enable-libgme --enable-libgsm --enable-libharfbuzz --enable-libmp3lame --enable-libmysofa --enable-libopenjpeg --enable-libopenmpt --enable-libopus --enable-librubberband --enable-libshine --enable-libsnappy --enable-libsoxr --enable-libspeex --enable-libtheora --enable-libtwolame --enable-libvidstab --enable-libvorbis --enable-libvpx --enable-libwebp --enable-libx265 --enable-libxml2 --enable-libxvid --enable-libzimg --enable-openal --enable-opencl --enable-opengl --disable-sndio --enable-libvpl --disable-libmfx --enable-libdc1394 --enable-libdrm --enable-libiec61883 --enable-chromaprint --enable-frei0r --enable-ladspa --enable-libbluray --enable-libjack --enable-libpulse --enable-librabbitmq --enable-librist --enable-libsrt --enable-libssh --enable-libsvtav1 --enable-libx264 --enable-libzmq --enable-libzvbi --enable-lv2 --enable-sdl2 --enable-libplacebo --enable-librav1e --enable-pocketsphinx --enable-librsvg --enable-libjxl --enable-shared
  libavutil      58. 29.100 / 58. 29.100
  libavcodec     60. 31.102 / 60. 31.102
  libavformat    60. 16.100 / 60. 16.100
  libavdevice    60.  3.100 / 60.  3.100
  libavfilter     9. 12.100 /  9. 12.100
  libswscale      7.  5.100 /  7.  5.100
  libswresample   4. 12.100 /  4. 12.100
  libpostproc    57.  3.100 / 57.  3.100
Routing option strict to both codec and muxer layer
[Parsed_scale_0 @ 0x5fbeab93b1c0] w:1280 h:720 flags:'' interl:0
[Parsed_scale_2 @ 0x5fbeab948880] w:1280 h:720 flags:'' interl:0
-vsync is deprecated. Use -fps_mode
Passing a number to -vsync is deprecated, use a string argument as described in the manual.
[h264 @ 0x5fbeab93b940] Reinit context to 1280x720, pix_fmt: yuv420p
Input #0, mov,mp4,m4a,3gp,3g2,mj2, from '/var/www/html/project/media/video/original/1000142306.mp4':
  Metadata:
    major_brand     : isom
    minor_version   : 512
    compatible_brands: isomiso2avc1mp41
    creation_time   : 2026-03-02T03:37:40.000000Z
  Duration: 00:00:36.70, start: 0.000000, bitrate: 3479 kb/s
  Stream #0:0[0x1](eng): Audio: aac (LC) (mp4a / 0x6134706D), 48000 Hz, stereo, fltp, 256 kb/s (default)
    Metadata:
      creation_time   : 2026-03-02T03:37:16.000000Z
      handler_name    : SoundHandle
      vendor_id       : [0][0][0][0]
  Stream #0:1[0x2](eng): Video: h264 (High), 1 reference frame (avc1 / 0x31637661), yuv420p(tv, bt470bg/bt470bg/smpte170m, progressive, left), 1280x720, 3217 kb/s, 29.89 fps, 60 tbr, 90k tbn (default)
    Metadata:
      creation_time   : 2026-03-02T03:37:16.000000Z
      handler_name    : VideoHandle
      vendor_id       : [0][0][0][0]
Input #1, png_pipe, from '/var/www/html/project/static/images/templates/logo.png':
  Duration: N/A, bitrate: N/A
  Stream #1:0: Video: png, 1 reference frame, rgba(pc, gbr/unknown/unknown), 1920x1080 [SAR 2835:2835 DAR 16:9], 25 fps, 25 tbr, 25 tbn
[out#0/mp4 @ 0x5fbeac7ecc80] Creating output stream from unlabeled output of complex filtergraph 0. This overrides automatic video mapping.
[vost#0:0/libx264 @ 0x5fbeac7eda00] Created video stream from complex filtergraph 0:[overlay:default]
[vost#0:0/libx264 @ 0x5fbeac7eda00] 
[out#0/mp4 @ 0x5fbeac7ecc80] No explicit maps, mapping streams automatically...
[aost#0:1/aac @ 0x5fbeac7ef400] Created audio stream from input stream 0:0
Stream mapping:
  Stream #0:1 (h264) -> scale:default (graph 0)
  Stream #1:0 (png) -> scale:default (graph 0)
  overlay:default (graph 0) -> Stream #0:0 (libx264)
  Stream #0:0 -> #0:1 (aac (native) -> aac (native))
Press [q] to stop, [?] for help
[graph_1_in_0_0 @ 0x5fbeab93b1c0] tb:1/48000 samplefmt:fltp samplerate:48000 chlayout:stereo
[h264 @ 0x5fbeaba757c0] Reinit context to 1280x720, pix_fmt: yuv420p
[in#1/png_pipe @ 0x5fbeab97cc40] EOF while reading input
[in#1/png_pipe @ 0x5fbeab97cc40] Terminating demuxer thread
[vist#1:0/png @ 0x5fbeaba74a40] Decoder thread received EOF packet
[vist#1:0/png @ 0x5fbeaba74a40] Decoder returned EOF, finishing
[vist#1:0/png @ 0x5fbeaba74a40] Terminating decoder thread
[Parsed_scale_0 @ 0x5fbeab9c12c0] w:1280 h:720 flags:'' interl:0
[Parsed_scale_2 @ 0x5fbeac9fb5c0] w:1280 h:720 flags:'' interl:0
[graph 0 input from stream 0:1 @ 0x5fbeac9f9ec0] w:1280 h:720 pixfmt:yuv420p tb:1/90000 fr:60/1 sar:0/1
[graph 0 input from stream 1:0 @ 0x5fbeac9f9b00] w:1920 h:1080 pixfmt:rgba tb:1/25 fr:25/1 sar:2835/2835
[Parsed_scale_0 @ 0x5fbeab9c12c0] w:1280 h:720 fmt:yuv420p sar:0/1 -> w:1280 h:720 fmt:yuv420p sar:0/1 flags:(null)
[Parsed_setsar_1 @ 0x5fbeac9fb980] w:1280 h:720 sar:0/1 dar:16/9 -> sar:1/1 dar:16/9
[Parsed_scale_2 @ 0x5fbeac9fb5c0] w:1920 h:1080 fmt:rgba sar:2835/2835 -> w:1280 h:720 fmt:yuva420p sar:1/1 flags:0x00000004
[Parsed_setsar_3 @ 0x5fbeac9fb040] w:1280 h:720 sar:1/1 dar:16/9 -> sar:1/1 dar:16/9
[Parsed_overlay_4 @ 0x5fbeac9facc0] main w:1280 h:720 fmt:yuv420p overlay w:1280 h:720 fmt:yuva420p
[Parsed_overlay_4 @ 0x5fbeac9facc0] [framesync @ 0x5fbeab956928] Selected 1/90000 time base
[Parsed_overlay_4 @ 0x5fbeac9facc0] [framesync @ 0x5fbeab956928] Sync level 2
[Parsed_scale_0 @ 0x5fbeab9c12c0] w:1280 h:720 fmt:yuv420p sar:0/1 -> w:1280 h:720 fmt:yuv420p sar:0/1 flags:(null)
    Last message repeated 2 times
[Parsed_scale_2 @ 0x5fbeac9fb5c0] w:1920 h:1080 fmt:rgba sar:2835/2835 -> w:1280 h:720 fmt:yuva420p sar:1/1 flags:0x00000004
    Last message repeated 2 times
[libx264 @ 0x5fbeac7eddc0] using SAR=1/1
[libx264 @ 0x5fbeac7eddc0] using cpu capabilities: MMX2 SSE2Fast SSSE3 SSE4.2 AVX FMA3 BMI2 AVX2
[libx264 @ 0x5fbeac7eddc0] profile High, level 3.2, 4:2:0, 8-bit
[libx264 @ 0x5fbeac7eddc0] 264 - core 164 r3108 31e19f9 - H.264/MPEG-4 AVC codec - Copyleft 2003-2023 - http://www.videolan.org/x264.html - options: cabac=1 ref=1 deblock=1:0:0 analyse=0x3:0x113 me=hex subme=2 psy=1 psy_rd=1.00:0.00 mixed_ref=0 me_range=16 chroma_me=1 trellis=0 8x8dct=1 cqm=0 deadzone=21,11 fast_pskip=1 chroma_qp_offset=0 threads=22 lookahead_threads=5 sliced_threads=0 nr=0 decimate=1 interlaced=0 bluray_compat=0 constrained_intra=0 bframes=3 b_pyramid=2 b_adapt=1 b_bias=0 direct=1 weightb=1 open_gop=0 weightp=1 keyint=250 keyint_min=25 scenecut=40 intra_refresh=0 rc_lookahead=10 rc=crf mbtree=1 crf=18.0 qcomp=0.60 qpmin=0 qpmax=69 qpstep=4 ip_ratio=1.40 aq=1:1.00
Output #0, mp4, to '/var/www/html/project/media/video/watermarks/1000142306.mp4':
  Metadata:
    major_brand     : isom
    minor_version   : 512
    compatible_brands: isomiso2avc1mp41
    encoder         : Lavf60.16.100
  Stream #0:0: Video: h264, 1 reference frame (avc1 / 0x31637661), yuv420p(tv, bt470bg/bt470bg/smpte170m, progressive, left), 1280x720 (0x0) [SAR 1:1 DAR 16:9], q=2-31, 60 fps, 15360 tbn
    Metadata:
      encoder         : Lavc60.31.102 libx264
    Side data:
      cpb: bitrate max/min/avg: 0/0/0 buffer size: 0 vbv_delay: N/A
  Stream #0:1(eng): Audio: aac (LC) (mp4a / 0x6134706D), 48000 Hz, stereo, fltp, delay 1024, 128 kb/s (default)
    Metadata:
      creation_time   : 2026-03-02T03:37:16.000000Z
      handler_name    : SoundHandle
      vendor_id       : [0][0][0][0]
      encoder         : Lavc60.31.102 aac
[in#0/mov,mp4,m4a,3gp,3g2,mj2 @ 0x5fbeab950d80] EOF while reading input
[in#0/mov,mp4,m4a,3gp,3g2,mj2 @ 0x5fbeab950d80] Terminating demuxer thread
[aist#0:0/aac @ 0x5fbeab97cac0] Decoder thread received EOF packet
[aist#0:0/aac @ 0x5fbeab97cac0] Decoder returned EOF, finishing
[aist#0:0/aac @ 0x5fbeab97cac0] Terminating decoder thread
[vist#0:1/h264 @ 0x5fbeab947b00] Decoder thread received EOF packet
[vist#0:1/h264 @ 0x5fbeab947b00] Decoder returned EOF, finishing
[vist#0:1/h264 @ 0x5fbeab947b00] Terminating decoder thread
[Parsed_overlay_4 @ 0x5fbeac9facc0] [framesync @ 0x5fbeab956928] Sync level 0
No more output streams to write to, finishing.
[out#0/mp4 @ 0x5fbeac7ecc80] All streams finished
[out#0/mp4 @ 0x5fbeac7ecc80] Terminating muxer thread
[AVIOContext @ 0x5fbeac953500] Statistics: 24657743 bytes written, 2 seeks, 97 writeouts
[out#0/mp4 @ 0x5fbeac7ecc80] Output file #0 (/var/www/html/project/media/video/watermarks/1000142306.mp4):
[out#0/mp4 @ 0x5fbeac7ecc80]   Output stream #0:0 (video): 1097 frames encoded; 1097 packets muxed (24026209 bytes); 
[out#0/mp4 @ 0x5fbeac7ecc80]   Output stream #0:1 (audio): 1718 frames encoded (1759232 samples); 1719 packets muxed (589841 bytes); 
[out#0/mp4 @ 0x5fbeac7ecc80]   Total: 2816 packets (24616050 bytes) muxed
[out#0/mp4 @ 0x5fbeac7ecc80] video:23463kB audio:576kB subtitle:0kB other streams:0kB global headers:0kB muxing overhead: 0.169357%
frame= 1097 fps=172 q=-1.0 Lsize=   24080kB time=00:00:36.62 bitrate=5386.0kbits/s speed=5.76x    
[AVIOContext @ 0x5fbeab9486c0] Statistics: 2631 bytes written, 0 seeks, 13 writeouts
[libx264 @ 0x5fbeac7eddc0] frame I:5     Avg QP:16.74  size:116781
[libx264 @ 0x5fbeac7eddc0] frame P:331   Avg QP:19.03  size: 41295
[libx264 @ 0x5fbeac7eddc0] frame B:761   Avg QP:21.24  size: 12842
[libx264 @ 0x5fbeac7eddc0] consecutive B-frames:  6.3%  0.5%  9.3% 83.9%
[libx264 @ 0x5fbeac7eddc0] mb I  I16..4:  7.2% 34.4% 58.3%
[libx264 @ 0x5fbeac7eddc0] mb P  I16..4:  7.7% 30.5%  4.9%  P16..4: 27.9% 14.7% 10.7%  0.0%  0.0%    skip: 3.6%
[libx264 @ 0x5fbeac7eddc0] mb B  I16..4:  1.6%  4.5%  0.2%  B16..8: 33.5% 12.1%  1.7%  direct:23.4%  skip:22.9%  L0:45.1% L1:37.2% BI:17.7%
[libx264 @ 0x5fbeac7eddc0] 8x8 transform intra:70.1% inter:53.7%
[libx264 @ 0x5fbeac7eddc0] coded y,uvDC,uvAC intra: 69.6% 85.6% 27.7% inter: 21.4% 57.2% 3.8%
[libx264 @ 0x5fbeac7eddc0] i16 v,h,dc,p: 26% 23% 26% 24%
[libx264 @ 0x5fbeac7eddc0] i8 v,h,dc,ddl,ddr,vr,hd,vl,hu: 17% 29% 21%  4%  5%  5%  7%  4%  7%
[libx264 @ 0x5fbeac7eddc0] i4 v,h,dc,ddl,ddr,vr,hd,vl,hu: 17% 28% 13%  6%  8%  6% 10%  5%  7%
[libx264 @ 0x5fbeac7eddc0] i8c dc,h,v,p: 44% 25% 19% 12%
[libx264 @ 0x5fbeac7eddc0] Weighted P-Frames: Y:12.1% UV:11.8%
[libx264 @ 0x5fbeac7eddc0] kb/s:5237.17
[aac @ 0x5fbeac7ef7c0] Qavg: 558.663
[in#0/mov,mp4,m4a,3gp,3g2,mj2 @ 0x5fbeab950d80] Input file #0 (/var/www/html/project/media/video/original/1000142306.mp4):
[in#0/mov,mp4,m4a,3gp,3g2,mj2 @ 0x5fbeab950d80]   Input stream #0:0 (audio): 1718 packets read (1172838 bytes); 1718 frames decoded; 0 decode errors (1759232 samples); 
[in#0/mov,mp4,m4a,3gp,3g2,mj2 @ 0x5fbeab950d80]   Input stream #0:1 (video): 1097 packets read (14761805 bytes); 1097 frames decoded; 0 decode errors; 
[in#0/mov,mp4,m4a,3gp,3g2,mj2 @ 0x5fbeab950d80]   Total: 2815 packets (15934643 bytes) demuxed
[AVIOContext @ 0x5fbeab951140] Statistics: 16001221 bytes read, 2 seeks
[in#1/png_pipe @ 0x5fbeab97cc40] Input file #1 (/var/www/html/project/static/images/templates/logo.png):
[in#1/png_pipe @ 0x5fbeab97cc40]   Input stream #1:0 (video): 1 packets read (111578 bytes); 1 frames decoded; 0 decode errors; 
[in#1/png_pipe @ 0x5fbeab97cc40]   Total: 1 packets (111578 bytes) demuxed
[AVIOContext @ 0x5fbeab97ce00] Statistics: 111578 bytes read, 0 seeks
